<?xml version="1.0" standalone="no"?>
<!DOCTYPE svg PUBLIC "-//W3C//DTD SVG 20010904//EN"
 "http://www.w3.org/TR/2001/REC-SVG-20010904/DTD/svg10.dtd">
<svg version="1.0" xmlns="http://www.w3.org/2000/svg"
 width="477.000000pt" height="477.000000pt" viewBox="0 0 477.000000 477.000000"
 preserveAspectRatio="xMidYMid meet">
<metadata>
Created by potrace 1.16, written by Peter Selinger 2001-2019
</metadata>
<g transform="translate(0.000000,477.000000) scale(0.100000,-0.100000)"
fill="#000000" stroke="none">
<path d="M0 2385 l0 -2385 1733 0 c1704 0 1732 0 1702 19 -16 10 -542 531
-1167 1157 -1002 1004 -1137 1143 -1143 1176 -16 85 -72 24 1143 1242 626 626
1151 1147 1167 1157 30 19 2 19 -1702 19 l-1733 0 0 -2385z"/>
<path d="M3591 4747 c43 -28 65 -87 55 -142 -7 -37 -102 -135 -1097 -1130
l-1089 -1090 1089 -1090 c995 -995 1090 -1093 1097 -1130 10 -55 -12 -114 -55
-142 l-34 -23 607 0 606 0 0 2385 0 2385 -606 0 -607 0 34 -23z"/>
</g>
</svg>
