<?xml version="1.0" standalone="no"?>
<!DOCTYPE svg PUBLIC "-//W3C//DTD SVG 20010904//EN"
 "http://www.w3.org/TR/2001/REC-SVG-20010904/DTD/svg10.dtd">
<svg version="1.0" xmlns="http://www.w3.org/2000/svg"
 width="477.000000pt" height="477.000000pt" viewBox="0 0 477.000000 477.000000"
 preserveAspectRatio="xMidYMid meet">
<metadata>
Created by potrace 1.16, written by Peter Selinger 2001-2019
</metadata>
<g transform="translate(0.000000,477.000000) scale(0.100000,-0.100000)"
fill="#000000" stroke="none">
<path d="M0 2385 l0 -2385 606 0 607 0 -34 23 c-43 28 -65 87 -55 142 7 37
102 135 1097 1130 l1089 1090 -1089 1090 c-995 995 -1090 1093 -1097 1130 -10
55 12 114 55 142 l34 23 -607 0 -606 0 0 -2385z"/>
<path d="M2478 3618 c1231 -1232 1183 -1179 1168 -1265 -7 -34 -119 -150
-1144 -1177 -625 -626 -1150 -1147 -1167 -1157 -30 -19 -2 -19 1703 -19 l1732
0 0 2385 0 2385 -1723 0 -1722 0 1153 -1152z"/>
</g>
</svg>
